<svg width="23" height="12" viewBox="0 0 23 12" fill="none" xmlns="http://www.w3.org/2000/svg">
<path d="M0.665053 1.45971C0.666344 1.09504 0.812448 0.745817 1.07122 0.488869C1.33 0.231921 1.68024 0.0882945 2.04491 0.0895858L21.2948 0.157752C21.6595 0.159044 22.0087 0.305147 22.2656 0.563921C22.5226 0.822695 22.6662 1.17294 22.6649 1.53761C22.6636 1.90228 22.5175 2.2515 22.2587 2.50845C22 2.7654 21.6497 2.90903 21.2851 2.90774L2.03518 2.83957C1.6705 2.83828 1.32128 2.69217 1.06434 2.4334C0.807388 2.17463 0.663761 1.82438 0.665053 1.45971Z" fill="#070648"/>
<path d="M2.01562 8.33959C1.65095 8.33829 1.3007 8.48192 1.04192 8.73887C0.783151 8.99582 0.637047 9.34504 0.635756 9.70971C0.634465 10.0744 0.778091 10.4246 1.03504 10.6834C1.29199 10.9422 1.64121 11.0883 2.00588 11.0896L13.0058 11.1285C13.3705 11.1298 13.7207 10.9862 13.9795 10.7292C14.2383 10.4723 14.3844 10.1231 14.3857 9.7584C14.387 9.39373 14.2433 9.04348 13.9864 8.78471C13.7294 8.52593 13.3802 8.37983 13.0155 8.37854L2.01562 8.33959Z" fill="#070648"/>
</svg>
